<svg width="35" height="35" viewBox="0 0 35 35" fill="none" xmlns="http://www.w3.org/2000/svg">
<g id="Account" clip-path="url(#clip0_18_3800)">
<path id="Vector" d="M17.5 2.91667C9.44996 2.91667 2.91663 9.45001 2.91663 17.5C2.91663 25.55 9.44996 32.0833 17.5 32.0833C25.55 32.0833 32.0833 25.55 32.0833 17.5C32.0833 9.45001 25.55 2.91667 17.5 2.91667ZM17.5 7.29167C19.9208 7.29167 21.875 9.24584 21.875 11.6667C21.875 14.0875 19.9208 16.0417 17.5 16.0417C15.0791 16.0417 13.125 14.0875 13.125 11.6667C13.125 9.24584 15.0791 7.29167 17.5 7.29167ZM17.5 28C13.8541 28 10.6312 26.1333 8.74996 23.3042C8.79371 20.4021 14.5833 18.8125 17.5 18.8125C20.402 18.8125 26.2062 20.4021 26.25 23.3042C24.3687 26.1333 21.1458 28 17.5 28Z" fill="#667080"/>
</g>
<defs>
<clipPath id="clip0_18_3800">
<rect width="35" height="35" fill="white"/>
</clipPath>
</defs>
</svg>
