<svg width="25" height="25" viewBox="0 0 25 25" fill="none" xmlns="http://www.w3.org/2000/svg">
<g id="shopping_cart" clip-path="url(#clip0_18_4231)">
<path id="Vector" d="M7.29167 18.7502C6.14583 18.7502 5.21875 19.6877 5.21875 20.8335C5.21875 21.9793 6.14583 22.9168 7.29167 22.9168C8.4375 22.9168 9.375 21.9793 9.375 20.8335C9.375 19.6877 8.4375 18.7502 7.29167 18.7502ZM1.04167 2.0835V4.16683H3.125L6.875 12.0731L5.46875 14.6252C5.30208 14.9168 5.20833 15.2606 5.20833 15.6252C5.20833 16.771 6.14583 17.7085 7.29167 17.7085H19.7917V15.6252H7.72917C7.58333 15.6252 7.46875 15.5106 7.46875 15.3647L7.5 15.2397L8.4375 13.5418H16.1979C16.9792 13.5418 17.6667 13.1147 18.0208 12.4689L21.75 5.7085C21.8333 5.56266 21.875 5.38558 21.875 5.2085C21.875 4.63558 21.4062 4.16683 20.8333 4.16683H5.42708L4.44792 2.0835H1.04167ZM17.7083 18.7502C16.5625 18.7502 15.6354 19.6877 15.6354 20.8335C15.6354 21.9793 16.5625 22.9168 17.7083 22.9168C18.8542 22.9168 19.7917 21.9793 19.7917 20.8335C19.7917 19.6877 18.8542 18.7502 17.7083 18.7502Z" fill="#667080"/>
</g>
<defs>
<clipPath id="clip0_18_4231">
<rect width="25" height="25" fill="white"/>
</clipPath>
</defs>
</svg>
