<svg width="25" height="25" viewBox="0 0 25 25" fill="none" xmlns="http://www.w3.org/2000/svg">
<g id="shopping_cart" clip-path="url(#clip0_18_3814)">
<path id="Vector" d="M7.29163 18.75C6.14579 18.75 5.21871 19.6875 5.21871 20.8333C5.21871 21.9791 6.14579 22.9166 7.29163 22.9166C8.43746 22.9166 9.37496 21.9791 9.37496 20.8333C9.37496 19.6875 8.43746 18.75 7.29163 18.75ZM1.04163 2.08331V4.16665H3.12496L6.87496 12.0729L5.46871 14.625C5.30204 14.9166 5.20829 15.2604 5.20829 15.625C5.20829 16.7708 6.14579 17.7083 7.29163 17.7083H19.7916V15.625H7.72913C7.58329 15.625 7.46871 15.5104 7.46871 15.3646L7.49996 15.2396L8.43746 13.5416H16.1979C16.9791 13.5416 17.6666 13.1146 18.0208 12.4687L21.75 5.70831C21.8333 5.56248 21.875 5.3854 21.875 5.20831C21.875 4.6354 21.4062 4.16665 20.8333 4.16665H5.42704L4.44788 2.08331H1.04163ZM17.7083 18.75C16.5625 18.75 15.6354 19.6875 15.6354 20.8333C15.6354 21.9791 16.5625 22.9166 17.7083 22.9166C18.8541 22.9166 19.7916 21.9791 19.7916 20.8333C19.7916 19.6875 18.8541 18.75 17.7083 18.75Z" fill="#EEF1F4"/>
</g>
<defs>
<clipPath id="clip0_18_3814">
<rect width="25" height="25" fill="white"/>
</clipPath>
</defs>
</svg>
